<svg width="184" height="39" viewBox="0 0 184 39" fill="none" xmlns="http://www.w3.org/2000/svg">
<rect width="184" height="39" rx="19.5" fill="#7C56FF"/>
<g clip-path="url(#clip0_0_1)">
<path d="M24.9313 4.0005C23.77 3.98301 22.7258 4.42759 21.9765 5.16077C21.2272 5.89396 20.7729 6.91576 20.7908 8.05216C20.8057 8.99006 20.6181 9.8796 20.2691 10.6835C20.0837 11.1133 19.8506 11.5187 19.5777 11.8924C19.3688 12.178 19.1365 12.4455 18.8836 12.6929C18.6307 12.9404 18.3575 13.1676 18.0656 13.372C17.6839 13.6395 17.2709 13.8676 16.8314 14.0491C16.0098 14.3908 15.1005 14.5738 14.1412 14.5596C12.9798 14.5421 11.9356 14.9867 11.1863 15.7199C10.437 16.4531 9.9827 17.4749 10.0006 18.6113C10.0363 20.8834 11.8448 22.6476 14.1406 22.6131C15.3014 22.5957 16.4756 22.1855 17.2249 21.4523C17.9742 20.719 18.429 19.8738 18.4111 18.7379C18.3965 17.799 18.5839 16.9081 18.933 16.1056C19.1186 15.6757 19.352 15.2715 19.6249 14.8978C19.833 14.6114 20.0653 14.3436 20.3182 14.0962C20.5711 13.8489 20.845 13.622 21.1369 13.4182C21.5184 13.1497 21.9329 12.9228 22.3723 12.7414C23.1923 12.3985 24.1028 12.2165 25.0613 12.231C26.2221 12.2485 27.2662 11.8035 28.0156 11.0702C28.765 10.3369 29.2196 9.31534 29.2019 8.17937C29.1656 5.90569 27.2533 4.03571 24.9313 4.0005Z" fill="white"/>
<path d="M29.2013 28.9934C29.2191 27.857 28.7648 26.8351 28.0155 26.1019C27.2663 25.3688 26.2221 24.9242 25.0607 24.9417C24.1022 24.9562 23.1932 24.7727 22.3717 24.4312C21.9325 24.2498 21.5181 24.0217 21.1362 23.7546C20.8444 23.5501 20.571 23.3228 20.3182 23.0754C20.0653 22.828 19.8331 22.5606 19.6242 22.275C19.3509 21.9015 19.1178 21.4973 18.9323 21.0672C18.5831 20.2634 18.3961 19.3735 18.4106 18.4348C18.4285 17.2984 17.9741 16.453 17.2249 15.7199C16.4756 14.9867 15.3024 14.5771 14.1411 14.5596C11.7871 14.5248 10.0357 16.2883 10 18.5614C10.001 19.6438 10.437 20.7191 11.1863 21.4523C11.9357 22.1856 12.9797 22.6306 14.1406 22.6131C15.1052 22.5986 16.0106 22.7821 16.8306 23.1238C17.27 23.3054 17.6831 23.5337 18.0649 23.8008C18.3576 24.0045 18.6312 24.2318 18.8841 24.4792C19.1368 24.7267 19.3687 24.9947 19.5769 25.2804C19.8514 25.6537 20.0832 26.0593 20.2686 26.4892C20.619 27.2916 20.8051 28.1826 20.7902 29.1205C20.7723 30.2564 21.227 31.2781 21.9765 32.0114C22.7259 32.7447 23.7698 33.1896 24.9307 33.1722C27.2543 33.1367 29.1653 31.2654 29.2013 28.9934Z" fill="white"/>
<path d="M34.9022 22.7287C37.2608 22.7287 39.1727 20.8577 39.1727 18.5498C39.1727 16.2419 37.2608 14.371 34.9022 14.371C32.5436 14.371 30.6317 16.2419 30.6317 18.5498C30.6317 20.8577 32.5436 22.7287 34.9022 22.7287Z" fill="white"/>
<path d="M46.1249 13.5455L48.9317 21.5043H49.0425L51.8493 13.5455H53.0496L49.578 23H48.3962L44.9246 13.5455H46.1249ZM54.3745 23V15.9091H55.464V23H54.3745ZM54.9285 14.7273C54.7162 14.7273 54.533 14.6549 54.3792 14.5103C54.2284 14.3656 54.1529 14.1918 54.1529 13.9886C54.1529 13.7855 54.2284 13.6116 54.3792 13.467C54.533 13.3223 54.7162 13.25 54.9285 13.25C55.1409 13.25 55.3225 13.3223 55.4733 13.467C55.6271 13.6116 55.7041 13.7855 55.7041 13.9886C55.7041 14.1918 55.6271 14.3656 55.4733 14.5103C55.3225 14.6549 55.1409 14.7273 54.9285 14.7273ZM60.4325 23.1477C59.7493 23.1477 59.1599 22.9969 58.6644 22.6953C58.172 22.3906 57.7919 21.9659 57.5241 21.4212C57.2595 20.8733 57.1271 20.2363 57.1271 19.5099C57.1271 18.7836 57.2595 18.1435 57.5241 17.5895C57.7919 17.0324 58.1643 16.5985 58.6413 16.2876C59.1214 15.9737 59.6816 15.8168 60.3217 15.8168C60.691 15.8168 61.0557 15.8783 61.4158 16.0014C61.7759 16.1245 62.1037 16.3246 62.3991 16.6016C62.6946 16.8755 62.93 17.2386 63.1055 17.6911C63.2809 18.1435 63.3686 18.7005 63.3686 19.3622V19.8239H57.9027V18.8821H62.2606C62.2606 18.482 62.1806 18.125 62.0206 17.8111C61.8636 17.4972 61.639 17.2494 61.3466 17.0678C61.0573 16.8862 60.7157 16.7955 60.3217 16.7955C59.8878 16.7955 59.5123 16.9032 59.1953 17.1186C58.8814 17.331 58.6398 17.608 58.4705 17.9496C58.3012 18.2912 58.2166 18.6574 58.2166 19.0483V19.6761C58.2166 20.2116 58.3089 20.6656 58.4936 21.038C58.6813 21.4073 58.9414 21.6889 59.2738 21.8828C59.6062 22.0736 59.9924 22.169 60.4325 22.169C60.7187 22.169 60.9773 22.129 61.2081 22.049C61.442 21.9659 61.6436 21.8428 61.8128 21.6797C61.9821 21.5135 62.1129 21.3073 62.2052 21.0611L63.2578 21.3565C63.147 21.7135 62.9608 22.0275 62.6992 22.2983C62.4376 22.5661 62.1144 22.7753 61.7297 22.9261C61.345 23.0739 60.9126 23.1477 60.4325 23.1477ZM66.6324 23L64.4719 15.9091H65.6168L67.1495 21.3381H67.2233L68.7376 15.9091H69.9009L71.3966 21.3196H71.4705L73.0032 15.9091H74.1481L71.9876 23H70.9165L69.3654 17.5526H69.2546L67.7035 23H66.6324ZM81.9222 23.1477C81.3313 23.1477 80.8096 22.9985 80.3572 22.6999C79.9048 22.3983 79.5509 21.9736 79.2954 21.4258C79.04 20.8749 78.9123 20.224 78.9123 19.473C78.9123 18.7282 79.04 18.0819 79.2954 17.5341C79.5509 16.9863 79.9064 16.5631 80.3618 16.2646C80.8173 15.966 81.3436 15.8168 81.9407 15.8168C82.4023 15.8168 82.767 15.8937 83.0348 16.0476C83.3056 16.1984 83.5118 16.3707 83.6534 16.5646C83.798 16.7554 83.9104 16.9124 83.9904 17.0355H84.0827V13.5455H85.1722V23H84.1197V21.9105H83.9904C83.9104 22.0398 83.7965 22.2029 83.6488 22.3999C83.501 22.5937 83.2902 22.7676 83.0163 22.9215C82.7424 23.0723 82.3777 23.1477 81.9222 23.1477ZM82.0699 22.169C82.507 22.169 82.8763 22.0552 83.1779 21.8274C83.4795 21.5966 83.7088 21.2781 83.8658 20.8718C84.0227 20.4625 84.1012 19.9901 84.1012 19.4545C84.1012 18.9252 84.0242 18.462 83.8704 18.065C83.7165 17.6649 83.4887 17.354 83.1871 17.1325C82.8855 16.9078 82.5131 16.7955 82.0699 16.7955C81.6083 16.7955 81.2236 16.9139 80.9158 17.1509C80.6111 17.3848 80.3818 17.7034 80.228 18.1065C80.0772 18.5066 80.0018 18.956 80.0018 19.4545C80.0018 19.9593 80.0787 20.4179 80.2326 20.8303C80.3895 21.2396 80.6204 21.5658 80.9251 21.8089C81.2328 22.049 81.6144 22.169 82.0699 22.169ZM90.1996 23.1477C89.5594 23.1477 88.9977 22.9954 88.5145 22.6907C88.0344 22.386 87.659 21.9598 87.3881 21.4119C87.1204 20.8641 86.9865 20.224 86.9865 19.4915C86.9865 18.7528 87.1204 18.1081 87.3881 17.5572C87.659 17.0063 88.0344 16.5785 88.5145 16.2738C88.9977 15.9691 89.5594 15.8168 90.1996 15.8168C90.8397 15.8168 91.3998 15.9691 91.88 16.2738C92.3631 16.5785 92.7386 17.0063 93.0064 17.5572C93.2772 18.1081 93.4126 18.7528 93.4126 19.4915C93.4126 20.224 93.2772 20.8641 93.0064 21.4119C92.7386 21.9598 92.3631 22.386 91.88 22.6907C91.3998 22.9954 90.8397 23.1477 90.1996 23.1477ZM90.1996 22.169C90.6858 22.169 91.0859 22.0444 91.3998 21.7951C91.7138 21.5458 91.9461 21.218 92.0969 20.8118C92.2477 20.4055 92.3231 19.9654 92.3231 19.4915C92.3231 19.0175 92.2477 18.5759 92.0969 18.1665C91.9461 17.7572 91.7138 17.4264 91.3998 17.174C91.0859 16.9216 90.6858 16.7955 90.1996 16.7955C89.7133 16.7955 89.3132 16.9216 88.9993 17.174C88.6854 17.4264 88.453 17.7572 88.3022 18.1665C88.1514 18.5759 88.076 19.0175 88.076 19.4915C88.076 19.9654 88.1514 20.4055 88.3022 20.8118C88.453 21.218 88.6854 21.5458 88.9993 21.7951C89.3132 22.0444 89.7133 22.169 90.1996 22.169ZM97.9564 23.1477C97.2916 23.1477 96.7192 22.9908 96.2391 22.6768C95.759 22.3629 95.3896 21.9305 95.1311 21.3796C94.8726 20.8287 94.7433 20.1993 94.7433 19.4915C94.7433 18.7713 94.8757 18.1358 95.1403 17.5849C95.4081 17.0309 95.7805 16.5985 96.2575 16.2876C96.7376 15.9737 97.2978 15.8168 97.9379 15.8168C98.4365 15.8168 98.8858 15.9091 99.2859 16.0938C99.686 16.2784 100.014 16.5369 100.269 16.8693C100.525 17.2017 100.683 17.5895 100.745 18.0327H99.6553C99.5722 17.7095 99.3875 17.4233 99.1013 17.174C98.8181 16.9216 98.4365 16.7955 97.9564 16.7955C97.5317 16.7955 97.1593 16.9062 96.8392 17.1278C96.5222 17.3464 96.2745 17.6557 96.096 18.0558C95.9205 18.4528 95.8328 18.919 95.8328 19.4545C95.8328 20.0024 95.919 20.4794 96.0913 20.8857C96.2668 21.2919 96.513 21.6074 96.83 21.832C97.15 22.0567 97.5255 22.169 97.9564 22.169C98.2395 22.169 98.4965 22.1198 98.7273 22.0213C98.9582 21.9228 99.1536 21.7812 99.3136 21.5966C99.4737 21.4119 99.5875 21.1903 99.6553 20.9318H100.745C100.683 21.3504 100.531 21.7274 100.288 22.0629C100.048 22.3952 99.7291 22.6599 99.3321 22.8569C98.9382 23.0508 98.4796 23.1477 97.9564 23.1477ZM106.806 20.1009V15.9091H107.896V23H106.806V21.7997H106.732C106.566 22.1598 106.308 22.466 105.957 22.7184C105.606 22.9677 105.163 23.0923 104.627 23.0923C104.184 23.0923 103.79 22.9954 103.445 22.8015C103.101 22.6045 102.83 22.3091 102.633 21.9151C102.436 21.5181 102.337 21.018 102.337 20.4148V15.9091H103.427V20.3409C103.427 20.858 103.572 21.2704 103.861 21.5781C104.153 21.8859 104.526 22.0398 104.978 22.0398C105.249 22.0398 105.524 21.9705 105.804 21.832C106.088 21.6935 106.325 21.4812 106.515 21.195C106.709 20.9087 106.806 20.544 106.806 20.1009ZM109.891 23V15.9091H110.944V17.017H111.036C111.184 16.6385 111.422 16.3446 111.752 16.1353C112.081 15.9229 112.476 15.8168 112.938 15.8168C113.406 15.8168 113.795 15.9229 114.106 16.1353C114.42 16.3446 114.665 16.6385 114.84 17.017H114.914C115.095 16.6508 115.368 16.36 115.731 16.1445C116.094 15.926 116.53 15.8168 117.037 15.8168C117.671 15.8168 118.19 16.0153 118.593 16.4123C118.996 16.8062 119.198 17.4202 119.198 18.2543V23H118.108V18.2543C118.108 17.7311 117.965 17.3571 117.679 17.1325C117.393 16.9078 117.056 16.7955 116.668 16.7955C116.17 16.7955 115.783 16.9463 115.509 17.2479C115.235 17.5464 115.099 17.925 115.099 18.3835V23H113.991V18.1435C113.991 17.7403 113.86 17.4156 113.598 17.1694C113.337 16.9201 113 16.7955 112.587 16.7955C112.304 16.7955 112.039 16.8709 111.793 17.0217C111.55 17.1725 111.353 17.3817 111.202 17.6495C111.054 17.9142 110.981 18.2204 110.981 18.5682V23H109.891ZM124.163 23.1477C123.48 23.1477 122.89 22.9969 122.395 22.6953C121.902 22.3906 121.522 21.9659 121.255 21.4212C120.99 20.8733 120.858 20.2363 120.858 19.5099C120.858 18.7836 120.99 18.1435 121.255 17.5895C121.522 17.0324 121.895 16.5985 122.372 16.2876C122.852 15.9737 123.412 15.8168 124.052 15.8168C124.422 15.8168 124.786 15.8783 125.146 16.0014C125.506 16.1245 125.834 16.3246 126.13 16.6016C126.425 16.8755 126.66 17.2386 126.836 17.6911C127.011 18.1435 127.099 18.7005 127.099 19.3622V19.8239H121.633V18.8821H125.991C125.991 18.482 125.911 18.125 125.751 17.8111C125.594 17.4972 125.369 17.2494 125.077 17.0678C124.788 16.8862 124.446 16.7955 124.052 16.7955C123.618 16.7955 123.243 16.9032 122.926 17.1186C122.612 17.331 122.37 17.608 122.201 17.9496C122.032 18.2912 121.947 18.6574 121.947 19.0483V19.6761C121.947 20.2116 122.039 20.6656 122.224 21.038C122.412 21.4073 122.672 21.6889 123.004 21.8828C123.337 22.0736 123.723 22.169 124.163 22.169C124.449 22.169 124.708 22.129 124.939 22.049C125.172 21.9659 125.374 21.8428 125.543 21.6797C125.713 21.5135 125.843 21.3073 125.936 21.0611L126.988 21.3565C126.877 21.7135 126.691 22.0275 126.43 22.2983C126.168 22.5661 125.845 22.7753 125.46 22.9261C125.076 23.0739 124.643 23.1477 124.163 23.1477ZM129.846 18.7344V23H128.756V15.9091H129.809V17.017H129.901C130.067 16.657 130.32 16.3677 130.658 16.1491C130.997 15.9276 131.434 15.8168 131.969 15.8168C132.45 15.8168 132.87 15.9152 133.23 16.1122C133.59 16.3061 133.87 16.6016 134.07 16.9986C134.27 17.3925 134.37 17.8911 134.37 18.4943V23H133.281V18.5682C133.281 18.0111 133.136 17.5772 132.847 17.2663C132.557 16.9524 132.16 16.7955 131.656 16.7955C131.308 16.7955 130.997 16.8709 130.723 17.0217C130.452 17.1725 130.238 17.3925 130.081 17.6818C129.924 17.9711 129.846 18.322 129.846 18.7344ZM139.445 15.9091V16.8324H135.77V15.9091H139.445ZM136.841 14.2102H137.93V20.9688C137.93 21.2765 137.975 21.5073 138.064 21.6612C138.157 21.812 138.274 21.9136 138.415 21.9659C138.56 22.0152 138.712 22.0398 138.872 22.0398C138.992 22.0398 139.091 22.0336 139.168 22.0213C139.245 22.0059 139.306 21.9936 139.352 21.9844L139.574 22.9631C139.5 22.9908 139.397 23.0185 139.265 23.0462C139.132 23.0769 138.965 23.0923 138.761 23.0923C138.454 23.0923 138.152 23.0262 137.857 22.8938C137.564 22.7615 137.321 22.5599 137.127 22.2891C136.936 22.0182 136.841 21.6766 136.841 21.2642V14.2102ZM143.17 23.1662C142.721 23.1662 142.313 23.0816 141.947 22.9123C141.581 22.7399 141.29 22.4922 141.074 22.169C140.859 21.8428 140.751 21.4489 140.751 20.9872C140.751 20.581 140.831 20.2517 140.991 19.9993C141.151 19.7438 141.365 19.5438 141.633 19.3991C141.901 19.2545 142.196 19.1468 142.519 19.076C142.845 19.0021 143.173 18.9437 143.503 18.9006C143.933 18.8452 144.283 18.8036 144.55 18.7759C144.821 18.7451 145.018 18.6944 145.141 18.6236C145.268 18.5528 145.331 18.4297 145.331 18.2543V18.2173C145.331 17.7618 145.206 17.4079 144.957 17.1555C144.711 16.9032 144.337 16.777 143.835 16.777C143.315 16.777 142.907 16.8909 142.612 17.1186C142.316 17.3464 142.108 17.5895 141.988 17.848L140.954 17.4787C141.139 17.0478 141.385 16.7124 141.693 16.4723C142.004 16.2292 142.342 16.0599 142.709 15.9645C143.078 15.866 143.441 15.8168 143.798 15.8168C144.026 15.8168 144.287 15.8445 144.583 15.8999C144.881 15.9522 145.169 16.0614 145.446 16.2276C145.726 16.3938 145.959 16.6446 146.143 16.9801C146.328 17.3156 146.42 17.7649 146.42 18.3281V23H145.331V22.0398H145.275C145.201 22.1937 145.078 22.3583 144.906 22.5337C144.734 22.7092 144.504 22.8584 144.218 22.9815C143.932 23.1046 143.583 23.1662 143.17 23.1662ZM143.336 22.1875C143.767 22.1875 144.13 22.1029 144.426 21.9336C144.724 21.7643 144.949 21.5458 145.1 21.2781C145.254 21.0103 145.331 20.7287 145.331 20.4332V19.4361C145.285 19.4915 145.183 19.5423 145.026 19.5884C144.872 19.6315 144.694 19.67 144.49 19.7038C144.29 19.7346 144.095 19.7623 143.904 19.7869C143.716 19.8085 143.564 19.8269 143.447 19.8423C143.164 19.8793 142.899 19.9393 142.653 20.0224C142.41 20.1024 142.213 20.224 142.062 20.3871C141.914 20.5471 141.841 20.7656 141.841 21.0426C141.841 21.4212 141.981 21.7074 142.261 21.9013C142.544 22.0921 142.902 22.1875 143.336 22.1875ZM151.493 15.9091V16.8324H147.818V15.9091H151.493ZM148.889 14.2102H149.978V20.9688C149.978 21.2765 150.023 21.5073 150.112 21.6612C150.205 21.812 150.321 21.9136 150.463 21.9659C150.608 22.0152 150.76 22.0398 150.92 22.0398C151.04 22.0398 151.139 22.0336 151.216 22.0213C151.292 22.0059 151.354 21.9936 151.4 21.9844L151.622 22.9631C151.548 22.9908 151.445 23.0185 151.312 23.0462C151.18 23.0769 151.012 23.0923 150.809 23.0923C150.502 23.0923 150.2 23.0262 149.904 22.8938C149.612 22.7615 149.369 22.5599 149.175 22.2891C148.984 22.0182 148.889 21.6766 148.889 21.2642V14.2102ZM153.131 23V15.9091H154.221V23H153.131ZM153.685 14.7273C153.473 14.7273 153.29 14.6549 153.136 14.5103C152.985 14.3656 152.91 14.1918 152.91 13.9886C152.91 13.7855 152.985 13.6116 153.136 13.467C153.29 13.3223 153.473 13.25 153.685 13.25C153.898 13.25 154.079 13.3223 154.23 13.467C154.384 13.6116 154.461 13.7855 154.461 13.9886C154.461 14.1918 154.384 14.3656 154.23 14.5103C154.079 14.6549 153.898 14.7273 153.685 14.7273ZM159.097 23.1477C158.457 23.1477 157.895 22.9954 157.412 22.6907C156.932 22.386 156.556 21.9598 156.286 21.4119C156.018 20.8641 155.884 20.224 155.884 19.4915C155.884 18.7528 156.018 18.1081 156.286 17.5572C156.556 17.0063 156.932 16.5785 157.412 16.2738C157.895 15.9691 158.457 15.8168 159.097 15.8168C159.737 15.8168 160.297 15.9691 160.777 16.2738C161.261 16.5785 161.636 17.0063 161.904 17.5572C162.175 18.1081 162.31 18.7528 162.31 19.4915C162.31 20.224 162.175 20.8641 161.904 21.4119C161.636 21.9598 161.261 22.386 160.777 22.6907C160.297 22.9954 159.737 23.1477 159.097 23.1477ZM159.097 22.169C159.583 22.169 159.983 22.0444 160.297 21.7951C160.611 21.5458 160.844 21.218 160.994 20.8118C161.145 20.4055 161.221 19.9654 161.221 19.4915C161.221 19.0175 161.145 18.5759 160.994 18.1665C160.844 17.7572 160.611 17.4264 160.297 17.174C159.983 16.9216 159.583 16.7955 159.097 16.7955C158.611 16.7955 158.211 16.9216 157.897 17.174C157.583 17.4264 157.35 17.7572 157.2 18.1665C157.049 18.5759 156.973 19.0175 156.973 19.4915C156.973 19.9654 157.049 20.4055 157.2 20.8118C157.35 21.218 157.583 21.5458 157.897 21.7951C158.211 22.0444 158.611 22.169 159.097 22.169ZM165.063 18.7344V23H163.973V15.9091H165.026V17.017H165.118C165.284 16.657 165.537 16.3677 165.875 16.1491C166.214 15.9276 166.651 15.8168 167.186 15.8168C167.666 15.8168 168.086 15.9152 168.447 16.1122C168.807 16.3061 169.087 16.6016 169.287 16.9986C169.487 17.3925 169.587 17.8911 169.587 18.4943V23H168.497V18.5682C168.497 18.0111 168.353 17.5772 168.063 17.2663C167.774 16.9524 167.377 16.7955 166.872 16.7955C166.525 16.7955 166.214 16.8709 165.94 17.0217C165.669 17.1725 165.455 17.3925 165.298 17.6818C165.141 17.9711 165.063 18.322 165.063 18.7344Z" fill="white"/>
</g>
<defs>
<clipPath id="clip0_0_1">
<rect width="165.586" height="29.1727" fill="white" transform="translate(10 4)"/>
</clipPath>
</defs>
</svg>
