<svg width="184" height="39" viewBox="0 0 184 39" fill="none" xmlns="http://www.w3.org/2000/svg">
<rect x="0.5" y="0.5" width="183" height="38" fill="#7C56FF"/>
<rect x="0.5" y="0.5" width="183" height="38" stroke="#7C56FF"/>
<g clip-path="url(#clip0_0_1)">
<path d="M24.9313 4.0005C23.77 3.98301 22.7258 4.42759 21.9765 5.16077C21.2272 5.89396 20.7729 6.91576 20.7908 8.05216C20.8057 8.99006 20.6181 9.8796 20.2691 10.6835C20.0837 11.1133 19.8506 11.5187 19.5777 11.8924C19.3688 12.178 19.1365 12.4455 18.8836 12.6929C18.6307 12.9404 18.3575 13.1676 18.0656 13.372C17.6839 13.6395 17.2709 13.8676 16.8314 14.0491C16.0098 14.3908 15.1005 14.5738 14.1412 14.5596C12.9798 14.5421 11.9356 14.9867 11.1863 15.7199C10.437 16.4531 9.9827 17.4749 10.0006 18.6113C10.0363 20.8834 11.8448 22.6476 14.1406 22.6131C15.3014 22.5957 16.4756 22.1855 17.2249 21.4523C17.9742 20.719 18.429 19.8738 18.4111 18.7379C18.3965 17.799 18.5839 16.9081 18.933 16.1056C19.1186 15.6757 19.352 15.2715 19.6249 14.8978C19.833 14.6114 20.0653 14.3436 20.3182 14.0962C20.5711 13.8489 20.845 13.622 21.1369 13.4182C21.5184 13.1497 21.9329 12.9228 22.3723 12.7414C23.1923 12.3985 24.1028 12.2165 25.0613 12.231C26.2221 12.2485 27.2662 11.8035 28.0156 11.0702C28.765 10.3369 29.2196 9.31534 29.2019 8.17937C29.1656 5.90569 27.2533 4.03571 24.9313 4.0005Z" fill="white"/>
<path d="M29.2013 28.9934C29.2191 27.857 28.7648 26.8351 28.0155 26.1019C27.2663 25.3688 26.2221 24.9242 25.0607 24.9417C24.1022 24.9562 23.1932 24.7727 22.3717 24.4312C21.9325 24.2498 21.5181 24.0217 21.1362 23.7546C20.8444 23.5501 20.571 23.3228 20.3182 23.0754C20.0653 22.828 19.8331 22.5606 19.6242 22.275C19.3509 21.9015 19.1178 21.4973 18.9323 21.0672C18.5831 20.2634 18.3961 19.3735 18.4106 18.4348C18.4285 17.2984 17.9741 16.453 17.2249 15.7199C16.4756 14.9867 15.3024 14.5771 14.1411 14.5596C11.7871 14.5248 10.0357 16.2883 10 18.5614C10.001 19.6438 10.437 20.7191 11.1863 21.4523C11.9357 22.1856 12.9797 22.6306 14.1406 22.6131C15.1052 22.5986 16.0106 22.7821 16.8306 23.1238C17.27 23.3054 17.6831 23.5337 18.0649 23.8008C18.3576 24.0045 18.6312 24.2318 18.8841 24.4792C19.1368 24.7267 19.3687 24.9947 19.5769 25.2804C19.8514 25.6537 20.0832 26.0593 20.2686 26.4892C20.619 27.2916 20.8051 28.1826 20.7902 29.1205C20.7723 30.2564 21.227 31.2781 21.9765 32.0114C22.7259 32.7447 23.7698 33.1896 24.9307 33.1722C27.2543 33.1367 29.1653 31.2654 29.2013 28.9934Z" fill="white"/>
<path d="M34.9022 22.7287C37.2608 22.7287 39.1727 20.8577 39.1727 18.5498C39.1727 16.2419 37.2608 14.371 34.9022 14.371C32.5436 14.371 30.6317 16.2419 30.6317 18.5498C30.6317 20.8577 32.5436 22.7287 34.9022 22.7287Z" fill="white"/>
<path d="M44.1323 13.5455L46.4175 20.7287H46.5052L48.7949 13.5455H51.0109L47.7516 23H45.1756L41.9118 13.5455H44.1323ZM52.1119 23V15.9091H54.0785V23H52.1119ZM53.0998 14.995C52.8074 14.995 52.5566 14.8981 52.3473 14.7042C52.1411 14.5072 52.038 14.2718 52.038 13.9979C52.038 13.727 52.1411 13.4947 52.3473 13.3008C52.5566 13.1038 52.8074 13.0053 53.0998 13.0053C53.3922 13.0053 53.6415 13.1038 53.8477 13.3008C54.057 13.4947 54.1616 13.727 54.1616 13.9979C54.1616 14.2718 54.057 14.5072 53.8477 14.7042C53.6415 14.8981 53.3922 14.995 53.0998 14.995ZM58.8854 23.1385C58.156 23.1385 57.5282 22.9908 57.0019 22.6953C56.4787 22.3968 56.0755 21.9751 55.7924 21.4304C55.5092 20.8826 55.3677 20.2347 55.3677 19.4869C55.3677 18.7575 55.5092 18.1173 55.7924 17.5664C56.0755 17.0155 56.4741 16.5862 56.988 16.2784C57.5051 15.9706 58.1114 15.8168 58.8069 15.8168C59.2747 15.8168 59.7102 15.8922 60.1134 16.043C60.5196 16.1907 60.8736 16.4138 61.1752 16.7124C61.4799 17.0109 61.7169 17.3864 61.8861 17.8388C62.0554 18.2881 62.14 18.8144 62.14 19.4176V19.9577H56.1525V18.739H60.2888C60.2888 18.4558 60.2273 18.205 60.1042 17.9865C59.9811 17.768 59.8102 17.5972 59.5917 17.4741C59.3763 17.3479 59.1255 17.2848 58.8393 17.2848C58.5407 17.2848 58.276 17.354 58.0452 17.4925C57.8175 17.628 57.639 17.8111 57.5097 18.0419C57.3804 18.2696 57.3143 18.5236 57.3112 18.8036V19.9624C57.3112 20.3132 57.3758 20.6164 57.5051 20.8718C57.6374 21.1272 57.8236 21.3242 58.0637 21.4627C58.3037 21.6012 58.5884 21.6705 58.9177 21.6705C59.1362 21.6705 59.3363 21.6397 59.5179 21.5781C59.6995 21.5166 59.8549 21.4242 59.9841 21.3011C60.1134 21.178 60.2119 21.0272 60.2796 20.8487L62.0985 20.9688C62.0062 21.4058 61.8169 21.7874 61.5307 22.1136C61.2475 22.4368 60.8813 22.6892 60.4319 22.8707C59.9857 23.0492 59.4702 23.1385 58.8854 23.1385ZM64.7714 23L62.8417 15.9091H64.8314L65.9302 20.6733H65.9948L67.1397 15.9091H69.0924L70.2558 20.6456H70.3158L71.3961 15.9091H73.3812L71.4561 23H69.3741L68.1553 18.5405H68.0676L66.8488 23H64.7714ZM80.052 23.1154C79.5134 23.1154 79.0256 22.9769 78.5885 22.6999C78.1546 22.4199 77.8099 22.009 77.5544 21.4673C77.3021 20.9226 77.1759 20.2547 77.1759 19.4638C77.1759 18.6513 77.3067 17.9757 77.5683 17.4371C77.8299 16.8955 78.1777 16.4908 78.6116 16.223C79.0486 15.9522 79.5272 15.8168 80.0473 15.8168C80.4444 15.8168 80.7752 15.8845 81.0399 16.0199C81.3076 16.1522 81.5231 16.3184 81.6862 16.5185C81.8524 16.7154 81.9786 16.9093 82.0647 17.1001H82.1248V13.5455H84.0868V23H82.1478V21.8643H82.0647C81.9724 22.0613 81.8416 22.2567 81.6723 22.4506C81.5062 22.6415 81.2892 22.8 81.0214 22.9261C80.7567 23.0523 80.4336 23.1154 80.052 23.1154ZM80.6752 21.5504C80.9922 21.5504 81.2599 21.4643 81.4785 21.2919C81.7 21.1165 81.8693 20.8718 81.9863 20.5579C82.1063 20.244 82.1663 19.8762 82.1663 19.4545C82.1663 19.0329 82.1078 18.6667 81.9909 18.3558C81.8739 18.045 81.7047 17.8049 81.4831 17.6357C81.2615 17.4664 80.9922 17.3817 80.6752 17.3817C80.352 17.3817 80.0797 17.4695 79.8581 17.6449C79.6365 17.8203 79.4687 18.0634 79.3549 18.3743C79.241 18.6851 79.1841 19.0452 79.1841 19.4545C79.1841 19.867 79.241 20.2317 79.3549 20.5487C79.4718 20.8626 79.6396 21.1088 79.8581 21.2873C80.0797 21.4627 80.352 21.5504 80.6752 21.5504ZM88.9075 23.1385C88.1904 23.1385 87.5703 22.9862 87.0471 22.6815C86.527 22.3737 86.1253 21.9459 85.8422 21.3981C85.559 20.8472 85.4175 20.2086 85.4175 19.4822C85.4175 18.7498 85.559 18.1096 85.8422 17.5618C86.1253 17.0109 86.527 16.5831 87.0471 16.2784C87.5703 15.9706 88.1904 15.8168 88.9075 15.8168C89.6246 15.8168 90.2432 15.9706 90.7633 16.2784C91.2865 16.5831 91.6897 17.0109 91.9729 17.5618C92.256 18.1096 92.3976 18.7498 92.3976 19.4822C92.3976 20.2086 92.256 20.8472 91.9729 21.3981C91.6897 21.9459 91.2865 22.3737 90.7633 22.6815C90.2432 22.9862 89.6246 23.1385 88.9075 23.1385ZM88.9168 21.6151C89.243 21.6151 89.5154 21.5227 89.7339 21.3381C89.9524 21.1503 90.117 20.8949 90.2278 20.5717C90.3417 20.2486 90.3986 19.8808 90.3986 19.4684C90.3986 19.056 90.3417 18.6882 90.2278 18.3651C90.117 18.0419 89.9524 17.7865 89.7339 17.5987C89.5154 17.411 89.243 17.3171 88.9168 17.3171C88.5874 17.3171 88.3105 17.411 88.0858 17.5987C87.8642 17.7865 87.6965 18.0419 87.5826 18.3651C87.4718 18.6882 87.4164 19.056 87.4164 19.4684C87.4164 19.8808 87.4718 20.2486 87.5826 20.5717C87.6965 20.8949 87.8642 21.1503 88.0858 21.3381C88.3105 21.5227 88.5874 21.6151 88.9168 21.6151ZM96.8802 23.1385C96.1539 23.1385 95.5291 22.9846 95.0059 22.6768C94.4858 22.366 94.0857 21.9351 93.8056 21.3842C93.5286 20.8333 93.3901 20.1993 93.3901 19.4822C93.3901 18.7559 93.5302 18.1188 93.8102 17.571C94.0934 17.0201 94.495 16.5908 95.0151 16.283C95.5352 15.9722 96.1539 15.8168 96.8709 15.8168C97.4896 15.8168 98.0312 15.9291 98.4959 16.1538C98.9607 16.3784 99.3284 16.6939 99.5993 17.1001C99.8701 17.5064 100.019 17.9834 100.047 18.5312H98.1913C98.1389 18.1773 98.0004 17.8926 97.7758 17.6772C97.5542 17.4587 97.2633 17.3494 96.9033 17.3494C96.5986 17.3494 96.3324 17.4325 96.1046 17.5987C95.8799 17.7618 95.7045 18.0004 95.5783 18.3143C95.4521 18.6282 95.3891 19.0083 95.3891 19.4545C95.3891 19.907 95.4506 20.2917 95.5737 20.6087C95.6999 20.9257 95.8769 21.1673 96.1046 21.3335C96.3324 21.4996 96.5986 21.5827 96.9033 21.5827C97.1279 21.5827 97.3295 21.5366 97.508 21.4442C97.6896 21.3519 97.8389 21.218 97.9558 21.0426C98.0758 20.8641 98.1543 20.6502 98.1913 20.4009H100.047C100.016 20.9426 99.8686 21.4196 99.6039 21.832C99.3423 22.2414 98.9807 22.5614 98.519 22.7923C98.0574 23.0231 97.5111 23.1385 96.8802 23.1385ZM105.853 19.9808V15.9091H107.82V23H105.932V21.712H105.858C105.698 22.1275 105.432 22.4614 105.059 22.7138C104.69 22.9661 104.239 23.0923 103.707 23.0923C103.233 23.0923 102.816 22.9846 102.456 22.7692C102.096 22.5537 101.814 22.2475 101.611 21.8505C101.411 21.4535 101.309 20.978 101.306 20.424V15.9091H103.273V20.0732C103.276 20.4917 103.388 20.8226 103.61 21.0657C103.831 21.3088 104.128 21.4304 104.501 21.4304C104.738 21.4304 104.959 21.3765 105.166 21.2688C105.372 21.158 105.538 20.9949 105.664 20.7795C105.793 20.564 105.857 20.2978 105.853 19.9808ZM109.393 23V15.9091H111.267V17.1602H111.351C111.498 16.7447 111.744 16.4169 112.089 16.1768C112.434 15.9368 112.846 15.8168 113.326 15.8168C113.813 15.8168 114.227 15.9383 114.568 16.1815C114.91 16.4215 115.138 16.7478 115.251 17.1602H115.325C115.47 16.7539 115.732 16.4292 116.11 16.1861C116.492 15.9399 116.943 15.8168 117.463 15.8168C118.124 15.8168 118.661 16.0276 119.074 16.4492C119.489 16.8678 119.697 17.4618 119.697 18.2312V23H117.735V18.619C117.735 18.225 117.63 17.9296 117.421 17.7326C117.212 17.5356 116.95 17.4371 116.636 17.4371C116.279 17.4371 116.001 17.551 115.801 17.7788C115.601 18.0034 115.501 18.3004 115.501 18.6697V23H113.594V18.5774C113.594 18.2296 113.494 17.9527 113.294 17.7464C113.097 17.5402 112.837 17.4371 112.514 17.4371C112.295 17.4371 112.098 17.4925 111.923 17.6033C111.751 17.7111 111.614 17.8634 111.512 18.0604C111.411 18.2543 111.36 18.482 111.36 18.7436V23H109.393ZM124.482 23.1385C123.753 23.1385 123.125 22.9908 122.599 22.6953C122.075 22.3968 121.672 21.9751 121.389 21.4304C121.106 20.8826 120.964 20.2347 120.964 19.4869C120.964 18.7575 121.106 18.1173 121.389 17.5664C121.672 17.0155 122.071 16.5862 122.585 16.2784C123.102 15.9706 123.708 15.8168 124.404 15.8168C124.871 15.8168 125.307 15.8922 125.71 16.043C126.116 16.1907 126.47 16.4138 126.772 16.7124C127.077 17.0109 127.314 17.3864 127.483 17.8388C127.652 18.2881 127.737 18.8144 127.737 19.4176V19.9577H121.749V18.739H125.886C125.886 18.4558 125.824 18.205 125.701 17.9865C125.578 17.768 125.407 17.5972 125.188 17.4741C124.973 17.3479 124.722 17.2848 124.436 17.2848C124.137 17.2848 123.873 17.354 123.642 17.4925C123.414 17.628 123.236 17.8111 123.106 18.0419C122.977 18.2696 122.911 18.5236 122.908 18.8036V19.9624C122.908 20.3132 122.973 20.6164 123.102 20.8718C123.234 21.1272 123.42 21.3242 123.66 21.4627C123.9 21.6012 124.185 21.6705 124.514 21.6705C124.733 21.6705 124.933 21.6397 125.115 21.5781C125.296 21.5166 125.452 21.4242 125.581 21.3011C125.71 21.178 125.809 21.0272 125.876 20.8487L127.695 20.9688C127.603 21.4058 127.414 21.7874 127.127 22.1136C126.844 22.4368 126.478 22.6892 126.029 22.8707C125.582 23.0492 125.067 23.1385 124.482 23.1385ZM130.987 18.9006V23H129.02V15.9091H130.894V17.1602H130.977C131.134 16.7478 131.398 16.4215 131.767 16.1815C132.136 15.9383 132.584 15.8168 133.11 15.8168C133.603 15.8168 134.032 15.9245 134.398 16.1399C134.765 16.3554 135.049 16.6631 135.252 17.0632C135.455 17.4602 135.557 17.9342 135.557 18.4851V23H133.59V18.8359C133.593 18.402 133.483 18.0634 133.258 17.8203C133.033 17.5741 132.724 17.451 132.33 17.451C132.065 17.451 131.832 17.5079 131.628 17.6218C131.428 17.7357 131.271 17.9019 131.158 18.1204C131.047 18.3358 130.99 18.5959 130.987 18.9006ZM140.879 15.9091V17.3864H136.608V15.9091H140.879ZM137.578 14.2102H139.545V20.821C139.545 21.0026 139.572 21.1442 139.628 21.2457C139.683 21.3442 139.76 21.4135 139.858 21.4535C139.96 21.4935 140.077 21.5135 140.209 21.5135C140.302 21.5135 140.394 21.5058 140.486 21.4904C140.579 21.4719 140.649 21.4581 140.699 21.4489L141.008 22.9123C140.909 22.9431 140.771 22.9785 140.592 23.0185C140.414 23.0616 140.197 23.0877 139.942 23.0969C139.468 23.1154 139.052 23.0523 138.695 22.9077C138.341 22.763 138.066 22.5384 137.869 22.2337C137.672 21.929 137.575 21.5443 137.578 21.0795V14.2102ZM144.182 23.1339C143.729 23.1339 143.326 23.0554 142.972 22.8984C142.618 22.7384 142.338 22.503 142.132 22.1921C141.929 21.8782 141.827 21.4873 141.827 21.0195C141.827 20.6256 141.9 20.2947 142.044 20.027C142.189 19.7592 142.386 19.5438 142.635 19.3807C142.885 19.2176 143.168 19.0945 143.485 19.0114C143.805 18.9283 144.14 18.8698 144.491 18.8359C144.903 18.7929 145.236 18.7528 145.488 18.7159C145.741 18.6759 145.924 18.6174 146.038 18.5405C146.151 18.4635 146.208 18.3497 146.208 18.1989V18.1712C146.208 17.8788 146.116 17.6526 145.931 17.4925C145.75 17.3325 145.491 17.2525 145.156 17.2525C144.802 17.2525 144.52 17.331 144.311 17.4879C144.102 17.6418 143.963 17.8357 143.896 18.0696L142.077 17.9219C142.169 17.491 142.351 17.1186 142.621 16.8047C142.892 16.4877 143.242 16.2446 143.669 16.0753C144.1 15.9029 144.599 15.8168 145.165 15.8168C145.559 15.8168 145.936 15.8629 146.296 15.9553C146.659 16.0476 146.981 16.1907 147.261 16.3846C147.544 16.5785 147.767 16.8278 147.93 17.1325C148.093 17.4341 148.175 17.7957 148.175 18.2173V23H146.31V22.0167H146.255C146.141 22.2383 145.988 22.4337 145.798 22.603C145.607 22.7692 145.377 22.9 145.11 22.9954C144.842 23.0877 144.533 23.1339 144.182 23.1339ZM144.745 21.7766C145.034 21.7766 145.29 21.7197 145.511 21.6058C145.733 21.4889 145.907 21.3319 146.033 21.1349C146.159 20.938 146.222 20.7148 146.222 20.4656V19.7131C146.161 19.7531 146.076 19.79 145.968 19.8239C145.864 19.8546 145.745 19.8839 145.613 19.9116C145.481 19.9362 145.348 19.9593 145.216 19.9808C145.084 19.9993 144.963 20.0162 144.856 20.0316C144.625 20.0655 144.423 20.1193 144.251 20.1932C144.079 20.267 143.945 20.3671 143.849 20.4933C143.754 20.6164 143.706 20.7702 143.706 20.9549C143.706 21.2227 143.803 21.4273 143.997 21.5689C144.194 21.7074 144.443 21.7766 144.745 21.7766ZM153.472 15.9091V17.3864H149.202V15.9091H153.472ZM150.172 14.2102H152.138V20.821C152.138 21.0026 152.166 21.1442 152.221 21.2457C152.277 21.3442 152.354 21.4135 152.452 21.4535C152.554 21.4935 152.671 21.5135 152.803 21.5135C152.895 21.5135 152.988 21.5058 153.08 21.4904C153.172 21.4719 153.243 21.4581 153.292 21.4489L153.602 22.9123C153.503 22.9431 153.365 22.9785 153.186 23.0185C153.008 23.0616 152.791 23.0877 152.535 23.0969C152.061 23.1154 151.646 23.0523 151.289 22.9077C150.935 22.763 150.659 22.5384 150.462 22.2337C150.266 21.929 150.169 21.5443 150.172 21.0795V14.2102ZM154.753 23V15.9091H156.72V23H154.753ZM155.741 14.995C155.449 14.995 155.198 14.8981 154.989 14.7042C154.783 14.5072 154.68 14.2718 154.68 13.9979C154.68 13.727 154.783 13.4947 154.989 13.3008C155.198 13.1038 155.449 13.0053 155.741 13.0053C156.034 13.0053 156.283 13.1038 156.489 13.3008C156.699 13.4947 156.803 13.727 156.803 13.9979C156.803 14.2718 156.699 14.5072 156.489 14.7042C156.283 14.8981 156.034 14.995 155.741 14.995ZM161.499 23.1385C160.782 23.1385 160.162 22.9862 159.639 22.6815C159.119 22.3737 158.717 21.9459 158.434 21.3981C158.151 20.8472 158.009 20.2086 158.009 19.4822C158.009 18.7498 158.151 18.1096 158.434 17.5618C158.717 17.0109 159.119 16.5831 159.639 16.2784C160.162 15.9706 160.782 15.8168 161.499 15.8168C162.216 15.8168 162.835 15.9706 163.355 16.2784C163.878 16.5831 164.282 17.0109 164.565 17.5618C164.848 18.1096 164.989 18.7498 164.989 19.4822C164.989 20.2086 164.848 20.8472 164.565 21.3981C164.282 21.9459 163.878 22.3737 163.355 22.6815C162.835 22.9862 162.216 23.1385 161.499 23.1385ZM161.509 21.6151C161.835 21.6151 162.107 21.5227 162.326 21.3381C162.544 21.1503 162.709 20.8949 162.82 20.5717C162.934 20.2486 162.99 19.8808 162.99 19.4684C162.99 19.056 162.934 18.6882 162.82 18.3651C162.709 18.0419 162.544 17.7865 162.326 17.5987C162.107 17.411 161.835 17.3171 161.509 17.3171C161.179 17.3171 160.902 17.411 160.678 17.5987C160.456 17.7865 160.288 18.0419 160.174 18.3651C160.064 18.6882 160.008 19.056 160.008 19.4684C160.008 19.8808 160.064 20.2486 160.174 20.5717C160.288 20.8949 160.456 21.1503 160.678 21.3381C160.902 21.5227 161.179 21.6151 161.509 21.6151ZM168.235 18.9006V23H166.268V15.9091H168.142V17.1602H168.226C168.382 16.7478 168.646 16.4215 169.015 16.1815C169.384 15.9383 169.832 15.8168 170.358 15.8168C170.851 15.8168 171.28 15.9245 171.646 16.1399C172.013 16.3554 172.297 16.6631 172.5 17.0632C172.704 17.4602 172.805 17.9342 172.805 18.4851V23H170.838V18.8359C170.842 18.402 170.731 18.0634 170.506 17.8203C170.281 17.5741 169.972 17.451 169.578 17.451C169.313 17.451 169.08 17.5079 168.876 17.6218C168.676 17.7357 168.519 17.9019 168.406 18.1204C168.295 18.3358 168.238 18.5959 168.235 18.9006Z" fill="white"/>
</g>
<defs>
<clipPath id="clip0_0_1">
<rect width="165.586" height="29.1727" fill="white" transform="translate(10 4)"/>
</clipPath>
</defs>
</svg>
