<svg width="184" height="39" viewBox="0 0 184 39" fill="none" xmlns="http://www.w3.org/2000/svg">
<rect x="0.5" y="0.5" width="183" height="38" rx="9.5" fill="#7C56FF"/>
<rect x="0.5" y="0.5" width="183" height="38" rx="9.5" stroke="#7C56FF"/>
<path d="M17.6774 11.0003C17.0803 10.9913 16.5434 11.2199 16.1581 11.5968C15.7728 11.9738 15.5392 12.4992 15.5484 13.0835C15.5561 13.5658 15.4596 14.0232 15.2802 14.4365C15.1848 14.6575 15.065 14.866 14.9247 15.0581C14.8173 15.205 14.6978 15.3425 14.5678 15.4697C14.4378 15.5969 14.2973 15.7138 14.1472 15.8189C13.9509 15.9564 13.7386 16.0737 13.5126 16.167C13.0902 16.3427 12.6226 16.4368 12.1293 16.4295C11.5322 16.4205 10.9953 16.6491 10.61 17.0261C10.2247 17.4031 9.99113 17.9285 10.0003 18.5128C10.0187 19.6811 10.9486 20.5882 12.1291 20.5705C12.7259 20.5615 13.3296 20.3506 13.7149 19.9736C14.1002 19.5966 14.3341 19.162 14.3249 18.5779C14.3173 18.0951 14.4137 17.6371 14.5932 17.2244C14.6886 17.0034 14.8086 16.7956 14.9489 16.6034C15.0559 16.4562 15.1754 16.3185 15.3054 16.1913C15.4355 16.0641 15.5763 15.9474 15.7264 15.8427C15.9226 15.7046 16.1357 15.5879 16.3616 15.4947C16.7832 15.3183 17.2514 15.2247 17.7442 15.2322C18.3411 15.2412 18.8779 15.0124 19.2632 14.6354C19.6486 14.2583 19.8824 13.733 19.8732 13.1489C19.8546 11.9799 18.8713 11.0184 17.6774 11.0003Z" fill="white"/>
<path d="M19.8729 23.8511C19.8821 23.2667 19.6485 22.7414 19.2632 22.3643C18.878 21.9874 18.3411 21.7588 17.7439 21.7678C17.2511 21.7752 16.7837 21.6809 16.3613 21.5053C16.1354 21.412 15.9224 21.2947 15.726 21.1574C15.576 21.0523 15.4354 20.9354 15.3054 20.8082C15.1754 20.6809 15.056 20.5435 14.9486 20.3966C14.808 20.2046 14.6882 19.9968 14.5928 19.7756C14.4132 19.3623 14.3171 18.9048 14.3245 18.4221C14.3337 17.8377 14.1001 17.4031 13.7149 17.0261C13.3296 16.6491 12.7264 16.4385 12.1293 16.4295C10.9189 16.4116 10.0184 17.3184 10 18.4872C10.0005 19.0437 10.2247 19.5966 10.61 19.9736C10.9953 20.3507 11.5321 20.5795 12.129 20.5705C12.625 20.563 13.0905 20.6574 13.5122 20.833C13.7381 20.9264 13.9505 21.0438 14.1468 21.1812C14.2973 21.2859 14.438 21.4028 14.568 21.53C14.698 21.6572 14.8172 21.795 14.9243 21.9419C15.0654 22.1339 15.1846 22.3424 15.2799 22.5635C15.4601 22.9761 15.5558 23.4342 15.5481 23.9164C15.5389 24.5005 15.7727 25.0258 16.158 25.4029C16.5434 25.7799 17.0802 26.0087 17.6771 25.9997C18.8718 25.9815 19.8544 25.0193 19.8729 23.8511Z" fill="white"/>
<path d="M22.8041 20.6299C24.0169 20.6299 25 19.6679 25 18.4812C25 17.2945 24.0169 16.3325 22.8041 16.3325C21.5914 16.3325 20.6083 17.2945 20.6083 18.4812C20.6083 19.6679 21.5914 20.6299 22.8041 20.6299Z" fill="white"/>
<path d="M54.1045 13.5455L56.3896 20.7287H56.4773L58.7671 13.5455H60.983L57.7238 23H55.1478L51.8839 13.5455H54.1045ZM62.0841 23V15.9091H64.0507V23H62.0841ZM63.072 14.995C62.7796 14.995 62.5288 14.8981 62.3195 14.7042C62.1133 14.5072 62.0102 14.2718 62.0102 13.9979C62.0102 13.727 62.1133 13.4947 62.3195 13.3008C62.5288 13.1038 62.7796 13.0053 63.072 13.0053C63.3644 13.0053 63.6136 13.1038 63.8199 13.3008C64.0291 13.4947 64.1338 13.727 64.1338 13.9979C64.1338 14.2718 64.0291 14.5072 63.8199 14.7042C63.6136 14.8981 63.3644 14.995 63.072 14.995ZM68.8576 23.1385C68.1282 23.1385 67.5003 22.9908 66.9741 22.6953C66.4509 22.3968 66.0477 21.9751 65.7645 21.4304C65.4814 20.8826 65.3398 20.2347 65.3398 19.4869C65.3398 18.7575 65.4814 18.1173 65.7645 17.5664C66.0477 17.0155 66.4462 16.5862 66.9602 16.2784C67.4773 15.9706 68.0836 15.8168 68.7791 15.8168C69.2469 15.8168 69.6824 15.8922 70.0856 16.043C70.4918 16.1907 70.8457 16.4138 71.1474 16.7124C71.452 17.0109 71.689 17.3864 71.8583 17.8388C72.0276 18.2881 72.1122 18.8144 72.1122 19.4176V19.9577H66.1246V18.739H70.261C70.261 18.4558 70.1994 18.205 70.0763 17.9865C69.9532 17.768 69.7824 17.5972 69.5639 17.4741C69.3485 17.3479 69.0976 17.2848 68.8114 17.2848C68.5129 17.2848 68.2482 17.354 68.0174 17.4925C67.7896 17.628 67.6111 17.8111 67.4819 18.0419C67.3526 18.2696 67.2864 18.5236 67.2834 18.8036V19.9624C67.2834 20.3132 67.348 20.6164 67.4773 20.8718C67.6096 21.1272 67.7958 21.3242 68.0358 21.4627C68.2759 21.6012 68.5606 21.6705 68.8899 21.6705C69.1084 21.6705 69.3085 21.6397 69.49 21.5781C69.6716 21.5166 69.827 21.4242 69.9563 21.3011C70.0856 21.178 70.1841 21.0272 70.2518 20.8487L72.0707 20.9688C71.9783 21.4058 71.789 21.7874 71.5028 22.1136C71.2197 22.4368 70.8534 22.6892 70.4041 22.8707C69.9578 23.0492 69.4423 23.1385 68.8576 23.1385ZM74.7436 23L72.8139 15.9091H74.8036L75.9023 20.6733H75.967L77.1118 15.9091H79.0646L80.228 20.6456H80.288L81.3682 15.9091H83.3533L81.4283 23H79.3462L78.1275 18.5405H78.0398L76.821 23H74.7436ZM87.4112 23V15.9091H89.3778V23H87.4112ZM88.3991 14.995C88.1068 14.995 87.8559 14.8981 87.6466 14.7042C87.4404 14.5072 87.3373 14.2718 87.3373 13.9979C87.3373 13.727 87.4404 13.4947 87.6466 13.3008C87.8559 13.1038 88.1068 13.0053 88.3991 13.0053C88.6915 13.0053 88.9408 13.1038 89.147 13.3008C89.3563 13.4947 89.4609 13.727 89.4609 13.9979C89.4609 14.2718 89.3563 14.5072 89.147 14.7042C88.9408 14.8981 88.6915 14.995 88.3991 14.995ZM92.9198 18.9006V23H90.9532V15.9091H92.8275V17.1602H92.9106C93.0675 16.7478 93.3307 16.4215 93.7 16.1815C94.0693 15.9383 94.5171 15.8168 95.0434 15.8168C95.5358 15.8168 95.9652 15.9245 96.3314 16.1399C96.6976 16.3554 96.9823 16.6631 97.1854 17.0632C97.3886 17.4602 97.4901 17.9342 97.4901 18.4851V23H95.5235V18.8359C95.5266 18.402 95.4158 18.0634 95.1911 17.8203C94.9665 17.5741 94.6572 17.451 94.2632 17.451C93.9985 17.451 93.7646 17.5079 93.5615 17.6218C93.3615 17.7357 93.2045 17.9019 93.0906 18.1204C92.9798 18.3358 92.9229 18.5959 92.9198 18.9006ZM104.94 17.9311L103.14 18.0419C103.109 17.888 103.043 17.7495 102.941 17.6264C102.839 17.5002 102.706 17.4002 102.539 17.3263C102.376 17.2494 102.181 17.2109 101.953 17.2109C101.648 17.2109 101.391 17.2756 101.182 17.4048C100.973 17.531 100.868 17.7003 100.868 17.9126C100.868 18.0819 100.936 18.225 101.071 18.342C101.207 18.4589 101.439 18.5528 101.768 18.6236L103.052 18.8821C103.741 19.0237 104.255 19.2514 104.594 19.5653C104.932 19.8793 105.102 20.2917 105.102 20.8026C105.102 21.2673 104.965 21.6751 104.691 22.0259C104.42 22.3768 104.047 22.6507 103.573 22.8477C103.103 23.0415 102.559 23.1385 101.944 23.1385C101.005 23.1385 100.257 22.9431 99.7003 22.5522C99.1463 22.1583 98.8216 21.6228 98.7262 20.9457L100.66 20.8441C100.719 21.1303 100.861 21.3488 101.085 21.4996C101.31 21.6474 101.598 21.7212 101.948 21.7212C102.293 21.7212 102.57 21.6551 102.779 21.5227C102.992 21.3873 103.1 21.2134 103.103 21.0011C103.1 20.8226 103.024 20.6764 102.876 20.5625C102.729 20.4455 102.501 20.3563 102.193 20.2947L100.965 20.0501C100.273 19.9116 99.7572 19.6715 99.4187 19.3299C99.0832 18.9883 98.9155 18.5528 98.9155 18.0234C98.9155 17.5679 99.0386 17.1755 99.2848 16.8462C99.5341 16.5169 99.8834 16.263 100.333 16.0845C100.785 15.906 101.314 15.8168 101.921 15.8168C102.816 15.8168 103.521 16.006 104.035 16.3846C104.552 16.7631 104.854 17.2786 104.94 17.9311ZM110.112 15.9091V17.3864H105.841V15.9091H110.112ZM106.811 14.2102H108.777V20.821C108.777 21.0026 108.805 21.1442 108.861 21.2457C108.916 21.3442 108.993 21.4135 109.091 21.4535C109.193 21.4935 109.31 21.5135 109.442 21.5135C109.535 21.5135 109.627 21.5058 109.719 21.4904C109.812 21.4719 109.882 21.4581 109.932 21.4489L110.241 22.9123C110.142 22.9431 110.004 22.9785 109.825 23.0185C109.647 23.0616 109.43 23.0877 109.174 23.0969C108.7 23.1154 108.285 23.0523 107.928 22.9077C107.574 22.763 107.299 22.5384 107.102 22.2337C106.905 21.929 106.808 21.5443 106.811 21.0795V14.2102ZM111.393 23V15.9091H113.299V17.1463H113.373C113.502 16.7062 113.719 16.3738 114.024 16.1491C114.329 15.9214 114.68 15.8075 115.077 15.8075C115.175 15.8075 115.281 15.8137 115.395 15.826C115.509 15.8383 115.609 15.8552 115.695 15.8768V17.6218C115.603 17.5941 115.475 17.5695 115.312 17.5479C115.149 17.5264 115 17.5156 114.864 17.5156C114.575 17.5156 114.316 17.5787 114.089 17.7049C113.864 17.828 113.686 18.0004 113.553 18.2219C113.424 18.4435 113.359 18.699 113.359 18.9883V23H111.393ZM121.259 19.9808V15.9091H123.226V23H121.338V21.712H121.264C121.104 22.1275 120.838 22.4614 120.465 22.7138C120.096 22.9661 119.645 23.0923 119.113 23.0923C118.639 23.0923 118.222 22.9846 117.861 22.7692C117.501 22.5537 117.22 22.2475 117.017 21.8505C116.817 21.4535 116.715 20.978 116.712 20.424V15.9091H118.679V20.0732C118.682 20.4917 118.794 20.8226 119.016 21.0657C119.237 21.3088 119.534 21.4304 119.907 21.4304C120.144 21.4304 120.365 21.3765 120.571 21.2688C120.778 21.158 120.944 20.9949 121.07 20.7795C121.199 20.564 121.262 20.2978 121.259 19.9808ZM128.003 23.1385C127.276 23.1385 126.652 22.9846 126.128 22.6768C125.608 22.366 125.208 21.9351 124.928 21.3842C124.651 20.8333 124.513 20.1993 124.513 19.4822C124.513 18.7559 124.653 18.1188 124.933 17.571C125.216 17.0201 125.618 16.5908 126.138 16.283C126.658 15.9722 127.276 15.8168 127.994 15.8168C128.612 15.8168 129.154 15.9291 129.619 16.1538C130.083 16.3784 130.451 16.6939 130.722 17.1001C130.993 17.5064 131.142 17.9834 131.17 18.5312H129.314C129.261 18.1773 129.123 17.8926 128.898 17.6772C128.677 17.4587 128.386 17.3494 128.026 17.3494C127.721 17.3494 127.455 17.4325 127.227 17.5987C127.002 17.7618 126.827 18.0004 126.701 18.3143C126.575 18.6282 126.512 19.0083 126.512 19.4545C126.512 19.907 126.573 20.2917 126.696 20.6087C126.822 20.9257 126.999 21.1673 127.227 21.3335C127.455 21.4996 127.721 21.5827 128.026 21.5827C128.25 21.5827 128.452 21.5366 128.631 21.4442C128.812 21.3519 128.961 21.218 129.078 21.0426C129.198 20.8641 129.277 20.6502 129.314 20.4009H131.17C131.139 20.9426 130.991 21.4196 130.726 21.832C130.465 22.2414 130.103 22.5614 129.642 22.7923C129.18 23.0231 128.634 23.1385 128.003 23.1385ZM136.2 15.9091V17.3864H131.93V15.9091H136.2ZM132.9 14.2102H134.866V20.821C134.866 21.0026 134.894 21.1442 134.949 21.2457C135.005 21.3442 135.082 21.4135 135.18 21.4535C135.282 21.4935 135.399 21.5135 135.531 21.5135C135.623 21.5135 135.716 21.5058 135.808 21.4904C135.9 21.4719 135.971 21.4581 136.02 21.4489L136.33 22.9123C136.231 22.9431 136.093 22.9785 135.914 23.0185C135.736 23.0616 135.519 23.0877 135.263 23.0969C134.789 23.1154 134.374 23.0523 134.017 22.9077C133.663 22.763 133.387 22.5384 133.191 22.2337C132.994 21.929 132.897 21.5443 132.9 21.0795V14.2102ZM137.482 23V15.9091H139.448V23H137.482ZM138.469 14.995C138.177 14.995 137.926 14.8981 137.717 14.7042C137.511 14.5072 137.408 14.2718 137.408 13.9979C137.408 13.727 137.511 13.4947 137.717 13.3008C137.926 13.1038 138.177 13.0053 138.469 13.0053C138.762 13.0053 139.011 13.1038 139.217 13.3008C139.427 13.4947 139.531 13.727 139.531 13.9979C139.531 14.2718 139.427 14.5072 139.217 14.7042C139.011 14.8981 138.762 14.995 138.469 14.995ZM144.227 23.1385C143.51 23.1385 142.89 22.9862 142.367 22.6815C141.847 22.3737 141.445 21.9459 141.162 21.3981C140.879 20.8472 140.737 20.2086 140.737 19.4822C140.737 18.7498 140.879 18.1096 141.162 17.5618C141.445 17.0109 141.847 16.5831 142.367 16.2784C142.89 15.9706 143.51 15.8168 144.227 15.8168C144.944 15.8168 145.563 15.9706 146.083 16.2784C146.606 16.5831 147.01 17.0109 147.293 17.5618C147.576 18.1096 147.717 18.7498 147.717 19.4822C147.717 20.2086 147.576 20.8472 147.293 21.3981C147.01 21.9459 146.606 22.3737 146.083 22.6815C145.563 22.9862 144.944 23.1385 144.227 23.1385ZM144.237 21.6151C144.563 21.6151 144.835 21.5227 145.054 21.3381C145.272 21.1503 145.437 20.8949 145.548 20.5717C145.662 20.2486 145.718 19.8808 145.718 19.4684C145.718 19.056 145.662 18.6882 145.548 18.3651C145.437 18.0419 145.272 17.7865 145.054 17.5987C144.835 17.411 144.563 17.3171 144.237 17.3171C143.907 17.3171 143.63 17.411 143.406 17.5987C143.184 17.7865 143.016 18.0419 142.902 18.3651C142.792 18.6882 142.736 19.056 142.736 19.4684C142.736 19.8808 142.792 20.2486 142.902 20.5717C143.016 20.8949 143.184 21.1503 143.406 21.3381C143.63 21.5227 143.907 21.6151 144.237 21.6151ZM150.963 18.9006V23H148.996V15.9091H150.87V17.1602H150.954C151.111 16.7478 151.374 16.4215 151.743 16.1815C152.112 15.9383 152.56 15.8168 153.086 15.8168C153.579 15.8168 154.008 15.9245 154.374 16.1399C154.741 16.3554 155.025 16.6631 155.228 17.0632C155.432 17.4602 155.533 17.9342 155.533 18.4851V23H153.566V18.8359C153.57 18.402 153.459 18.0634 153.234 17.8203C153.009 17.5741 152.7 17.451 152.306 17.451C152.042 17.451 151.808 17.5079 151.604 17.6218C151.404 17.7357 151.247 17.9019 151.134 18.1204C151.023 18.3358 150.966 18.5959 150.963 18.9006ZM162.983 17.9311L161.183 18.0419C161.152 17.888 161.086 17.7495 160.984 17.6264C160.882 17.5002 160.749 17.4002 160.582 17.3263C160.419 17.2494 160.224 17.2109 159.996 17.2109C159.691 17.2109 159.434 17.2756 159.225 17.4048C159.016 17.531 158.911 17.7003 158.911 17.9126C158.911 18.0819 158.979 18.225 159.114 18.342C159.25 18.4589 159.482 18.5528 159.811 18.6236L161.095 18.8821C161.784 19.0237 162.298 19.2514 162.637 19.5653C162.975 19.8793 163.145 20.2917 163.145 20.8026C163.145 21.2673 163.008 21.6751 162.734 22.0259C162.463 22.3768 162.09 22.6507 161.616 22.8477C161.146 23.0415 160.602 23.1385 159.987 23.1385C159.048 23.1385 158.3 22.9431 157.743 22.5522C157.189 22.1583 156.865 21.6228 156.769 20.9457L158.703 20.8441C158.762 21.1303 158.904 21.3488 159.128 21.4996C159.353 21.6474 159.641 21.7212 159.991 21.7212C160.336 21.7212 160.613 21.6551 160.822 21.5227C161.035 21.3873 161.143 21.2134 161.146 21.0011C161.143 20.8226 161.067 20.6764 160.919 20.5625C160.772 20.4455 160.544 20.3563 160.236 20.2947L159.008 20.0501C158.316 19.9116 157.8 19.6715 157.462 19.3299C157.126 18.9883 156.958 18.5528 156.958 18.0234C156.958 17.5679 157.082 17.1755 157.328 16.8462C157.577 16.5169 157.926 16.263 158.376 16.0845C158.828 15.906 159.357 15.8168 159.964 15.8168C160.859 15.8168 161.564 16.006 162.078 16.3846C162.595 16.7631 162.897 17.2786 162.983 17.9311Z" fill="white"/>
</svg>
